<?xml version="1.0" encoding="utf-8"?>
<!-- Generator: Adobe Illustrator 23.0.3, SVG Export Plug-In . SVG Version: 6.00 Build 0)  -->
<svg version="1.1" id="Layer_1" xmlns="http://www.w3.org/2000/svg" xmlns:xlink="http://www.w3.org/1999/xlink" x="0px" y="0px"
	 viewBox="0 0 760 323" style="enable-background:new 0 0 760 323;" xml:space="preserve">
<style type="text/css">
	.st0{fill:#242021;}
	.st1{fill:#9CC4B3;}
	.st2{fill:#F29D22;}
	.st3{fill:none;stroke:#0737E5;stroke-miterlimit:10;}
	.st4{fill:#FFAAEB;}
	.st5{fill:#FCC136;}
	.st6{fill:#E4E9FF;}
	.st7{fill:#FF6C89;}
	.st8{fill:#FC97AF;}
	.st9{fill:none;stroke:#242021;stroke-miterlimit:10;}
	.st10{fill:#86A597;}
</style>
<ellipse class="st0" cx="483.75" cy="307.03" rx="73.36" ry="13.9"/>
<ellipse class="st0" cx="428.37" cy="304.04" rx="69.25" ry="12.38"/>
<path class="st0" d="M246.31,302.61c0,1.47-1.21,2.89-3.45,4.22c-9.43,5.62-37.16,9.68-69.91,9.68c-21.41,0-40.68-1.74-54.09-4.51
	h-0.01c-1.29-0.27-2.52-0.54-3.69-0.83c-9.52-2.3-15.28-5.18-15.56-8.32h8.35l-0.02-0.24l2.07-7.13c5.57-1.76,13.14-3.27,22.11-4.4
	h0.01c6.77-0.87,14.33-1.52,22.43-1.92c0.01,0,0.01,0,0.02,0c5.88-0.29,12.03-0.44,18.38-0.44c12.48,0,24.23,0.59,34.51,1.63
	c12.4,1.25,22.68,3.16,29.54,5.49c5.04,1.7,8.24,3.62,9.09,5.67C246.23,301.87,246.31,302.24,246.31,302.61z"/>
<path class="st0" d="M147.66,299.63c0,1.11-0.69,2.19-1.99,3.22c-4.33,3.45-15.44,6.4-30.51,8.32c-2.08,0.27-4.24,0.52-6.47,0.74
	c-10.26,1.03-21.96,1.62-34.39,1.62c-40.52,0-73.36-6.23-73.36-13.9c0-6.79,25.76-12.46,59.79-13.66c0.23,2.02,0.62,4.12,1.19,6.3
	c0.84,3.33,2.11,6.85,3.84,10.58h42.19l-0.02-0.24l2.07-7.13l2.24-7.75c7.66,0.88,14.39,2.02,19.87,3.35h0.01
	C141.86,293.44,147.66,296.41,147.66,299.63z"/>
<path class="st0" d="M186.82,299.63c0,0.37-0.09,0.74-0.28,1.11c-0.35,0.72-1.06,1.43-2.09,2.11c-2.07,1.38-5.42,2.65-9.82,3.79
	c-12.26,3.19-32.63,5.29-55.77,5.36h-0.01c-0.43,0.01-0.85,0.01-1.28,0.01c-3.01,0-5.97-0.03-8.88-0.1
	c-34.05-0.78-60.36-5.98-60.36-12.28c0-2.76,5.05-5.31,13.59-7.36c0.84,3.33,2.11,6.85,3.84,10.58h42.19l-0.02-0.24l2.07-7.13
	l2.24-7.75l0.13-0.44c1.72-0.03,3.45-0.04,5.2-0.04c13.6,0,26.28,0.7,36.98,1.91c0.01,0,0.01,0,0.02,0
	C173.95,291.35,186.82,295.22,186.82,299.63z"/>
<ellipse class="st0" cx="612.46" cy="301.91" rx="48.7" ry="3.78"/>
<ellipse class="st0" cx="210" cy="304.04" rx="48.7" ry="3.78"/>
<path class="st1" d="M722.05,227.61c0,0-0.85,59.92-62.98,38.47v-40.85h5.28l5.62-7.66l-7.4-12.9v-0.01l-3.5-6.08l-39.48-68.8
	c1.11-0.68,80.17-48.51,105.52,29.58C725.11,159.36,805.8,197.31,722.05,227.61z"/>
<path class="st1" d="M307.02,193.46l-40.92-71.3h-65.83c0,0-9.63-31.74,14.03-55.23c23.67-23.49-4.99-44.94,25.68-62.3
	c26.39-14.94,47.75,39.69,55.34,64.34h-2.72l-4.59,10.22l20.09,35.24c-1.8,8.39-5.98,19.46-13.93,34.56
	C294.17,148.99,325.55,167.58,307.02,193.46z"/>
<polygon class="st2" points="377.37,216.04 371.24,225.23 308.1,114.43 288.01,79.19 292.6,68.97 297.9,78.16 297.9,78.17 
	304.69,89.94 306.7,93.44 "/>
<path class="st3" d="M306.7,93.44l-2.01-3.5C305.4,91.03,306.09,92.18,306.7,93.44z"/>
<path class="st4" d="M506.22,227.61v46.3c-13.77,10.33-25.13,8.37-32.08,5.08c0,0,0,0-0.01,0c-4.72-2.23-7.4-5.08-7.4-5.08v-25.53
	C466.73,248.38,493.45,227.78,506.22,227.61z"/>
<path class="st0" d="M506.22,225.23v2.38c-12.77,0.17-39.49,20.77-39.49,20.77v-23.15H506.22z"/>
<path class="st0" d="M463.33,302.85h-37.45v-13.28c14.13-14.21,27.93-22.21,40.85-26.05v10.39c0,0,2.68,2.85,7.4,5.08
	C473.69,279.05,461.15,280.94,463.33,302.85z"/>
<path class="st4" d="M546.39,287.53v15.32h-83.06c-2.18-21.91,10.36-23.8,10.8-23.86c0.01,0,0.01,0,0.01,0
	c6.95,3.29,18.31,5.25,32.08-5.08v-10.53C530.55,270.26,546.39,287.53,546.39,287.53z"/>
<path class="st5" d="M330.9,235.08l-76.59-0.4l-108.83-0.58h-0.03c-2.96-2.02-6.38-3.87-10.2-5.1h181.68l-56.39-99.85H53.6
	L109.73,229h6.28c-2.62,0.86-5.32,2.1-8.08,3.8L44.16,122.16H266.1l40.92,71.3L330.9,235.08z"/>
<path class="st2" d="M107.93,232.8c-2,1.22-4.04,2.69-6.11,4.43l-61.15-107.3l3.49-7.77L107.93,232.8z"/>
<path class="st2" d="M330.9,235.08l-4.27,5.82H177.72c-3.5-1.31-7.45-1.54-11.84,0H153.5c-2.02-2.07-4.71-4.51-8.02-6.8l108.83,0.58
	L330.9,235.08z"/>
<path class="st6" d="M260.54,129.15H53.6L109.73,229h6.28c4.77-1.56,9.28-1.86,13.44-1.32l0.18,0.03c1.95,0.26,3.83,0.71,5.62,1.29
	h181.68L260.54,129.15z M257.44,136.13l10.62,18.9l11.62,20.68h-59.23l-12.42-24.37h-0.01l-4.1-8.06h-0.01l-3.64-7.15H257.44z
	 M188.63,136.13l3.07,5.46l16.77,29.83l0.01,0.01l2.4,4.28h-59.24l-4.32-8.48l-4.49-8.81h-0.01l-11.36-22.29H188.63z M65.76,136.13
	h57.17l8.8,15.67h0.01l5.12,9.12l8.31,14.79H85.94L65.76,136.13z M111.93,222.55l-20.17-39.58h57.16l22.25,39.58H111.93z
	 M177.76,222.55l-20.17-39.58h57.16l15.53,27.63l5.69,10.12l1.03,1.83H177.76z M228.25,187.62l-2.37-4.65h57.17l5.89,10.49l5.23,9.3
	l11.12,19.79h-59.23L228.25,187.62z"/>
<polygon class="st7" points="145.17,175.71 85.94,175.71 65.76,136.13 95.77,136.13 136.86,160.92 "/>
<polygon class="st8" points="136.86,160.92 95.77,136.13 105.47,136.13 131.73,151.8 131.74,151.8 "/>
<polygon class="st7" points="131.73,151.8 105.47,136.13 122.93,136.13 "/>
<polygon class="st8" points="191.7,141.59 182.55,136.13 188.63,136.13 "/>
<polygon class="st8" points="210.88,175.71 208.19,175.71 141.55,136.13 149.51,136.13 208.47,171.42 208.48,171.43 "/>
<polygon class="st7" points="208.19,175.71 171.81,175.71 142.83,158.42 142.82,158.42 131.46,136.13 141.55,136.13 "/>
<polygon class="st8" points="171.81,175.71 161.37,175.71 147.32,167.23 142.83,158.42 "/>
<polygon class="st7" points="161.37,175.71 151.64,175.71 147.32,167.23 "/>
<polygon class="st8" points="279.68,175.71 273.48,175.71 206.16,136.13 237,136.13 268.06,155.03 "/>
<polygon class="st7" points="268.06,155.03 237,136.13 257.44,136.13 "/>
<polygon class="st7" points="273.48,175.71 258.86,175.71 254.31,173.02 203.92,143.28 203.91,143.28 200.27,136.13 206.16,136.13 
	"/>
<polygon class="st8" points="258.86,175.71 248.86,175.71 208.03,151.34 208.02,151.34 203.92,143.28 254.31,173.02 "/>
<polygon class="st7" points="248.86,175.71 220.45,175.71 208.03,151.34 "/>
<polygon class="st8" points="293.85,222.55 287.06,222.55 254.31,203.1 228.25,187.62 225.88,182.97 227.74,182.97 254.31,198.88 
	"/>
<polygon class="st7" points="305.29,222.55 293.85,222.55 254.31,198.88 227.74,182.97 261.02,182.97 294.17,202.76 "/>
<polygon class="st8" points="294.17,202.76 261.02,182.97 271.16,182.97 288.94,193.46 "/>
<polygon class="st7" points="288.94,193.46 271.16,182.97 283.05,182.97 "/>
<polygon class="st7" points="237,222.55 177.76,222.55 157.59,182.97 173.4,182.97 235.97,220.72 "/>
<polygon class="st8" points="235.97,220.72 173.4,182.97 183.97,182.97 230.28,210.6 "/>
<polygon class="st7" points="230.28,210.6 183.97,182.97 214.75,182.97 "/>
<polygon class="st7" points="171.17,222.55 163.8,222.55 97.83,182.97 148.92,182.97 "/>
<polygon class="st8" points="163.8,222.55 111.93,222.55 91.76,182.97 97.83,182.97 "/>
<polygon class="st7" points="287.06,222.55 246.06,222.55 228.25,187.62 254.31,203.1 "/>
<polygon class="st7" points="208.47,171.42 149.51,136.13 182.55,136.13 191.7,141.59 "/>
<path class="st4" d="M206.48,242.71V270c-2-2.09-4.96-3.81-9.19-4.94c0,0-2.82-8.11-8.3-15.13
	C195.03,246.26,201.92,242.78,206.48,242.71z"/>
<path class="st0" d="M206.48,240.9v1.81c-4.56,0.07-11.45,3.55-17.49,7.22c-2.98-3.83-6.74-7.33-11.27-9.03H206.48z"/>
<path class="st4" d="M237,290.23v11.65h-36.02c2.85-4,13.01-19.45,7.31-29.46C225.75,277.96,237,290.23,237,290.23z"/>
<polygon class="st8" points="575.16,139.44 561.98,139.44 508.25,107.37 502.84,96.76 "/>
<polygon class="st8" points="621.2,201.08 612.26,201.08 534.88,155.13 531.75,148.99 534.19,148.99 "/>
<polygon class="st7" points="612.26,201.08 558.31,201.08 534.88,155.13 "/>
<polygon class="st7" points="636.26,201.08 621.2,201.08 534.19,148.99 577.98,148.99 621.62,175.04 "/>
<polygon class="st7" points="614.74,162.8 591.34,148.99 606.99,148.99 "/>
<polygon class="st8" points="621.62,175.04 577.98,148.99 591.34,148.99 614.74,162.8 "/>
<polygon class="st7" points="561.98,139.44 524.6,139.44 508.25,107.37 "/>
<polygon class="st7" points="587.25,112.22 546.39,87.36 573.28,87.36 "/>
<polygon class="st8" points="602.56,139.44 594.39,139.44 505.8,87.36 546.39,87.36 587.25,112.22 587.26,112.22 "/>
<polygon class="st7" points="594.39,139.44 575.16,139.44 502.84,96.76 498.05,87.36 505.8,87.36 "/>
<polygon class="st8" points="486.77,94.55 474.73,87.36 482.73,87.36 "/>
<polygon class="st7" points="508.85,133.82 431.24,87.36 474.73,87.36 486.77,94.55 "/>
<polygon class="st8" points="512.01,139.44 508.47,139.44 420.77,87.36 431.24,87.36 508.85,133.82 "/>
<polygon class="st7" points="537.55,185.35 476.6,148.99 517.11,148.99 "/>
<polygon class="st7" points="546.39,201.08 468.43,201.08 441.88,148.99 462.68,148.99 545.03,198.67 "/>
<polygon class="st8" points="545.03,198.67 462.68,148.99 476.6,148.99 537.55,185.35 "/>
<polygon class="st7" points="446.85,139.44 434.05,139.44 428.37,128.29 "/>
<polygon class="st8" points="460.59,139.44 446.85,139.44 428.37,128.29 428.36,128.29 422.45,116.69 "/>
<polygon class="st7" points="508.47,139.44 460.59,139.44 422.45,116.69 407.5,87.36 420.77,87.36 "/>
<polygon class="st7" points="407.85,107.97 373.28,87.36 396.26,87.36 "/>
<polygon class="st8" points="414.6,119.99 360.52,87.36 373.28,87.36 407.85,107.97 407.86,107.98 "/>
<polygon class="st7" points="425.54,139.44 347.58,139.44 321.03,87.36 360.52,87.36 414.6,119.99 414.61,119.99 "/>
<polygon class="st7" points="459.75,201.08 450.05,201.08 363.24,148.99 430.48,148.99 "/>
<polygon class="st8" points="450.05,201.08 381.8,201.08 355.24,148.99 363.24,148.99 "/>
<line class="st9" x1="659.07" y1="198.58" x2="659.07" y2="144.22"/>
<line class="st9" x1="681.88" y1="177.57" x2="662.57" y2="204.66"/>
<polygon class="st1" points="659.07,225.23 659.07,242.25 645.77,225.23 "/>
<path class="st1" d="M659.07,242.25v23.83c0,0-5.76-3.94-25.04,1.44c-19.29,5.37-54.75-8.25-56.66-42.29h68.4L659.07,242.25z"/>
<path class="st3" d="M619.59,129.78c-0.01,0-0.01,0-0.01,0"/>
<line class="st9" x1="254.31" y1="122.16" x2="254.31" y2="78.17"/>
<path class="st10" d="M129.63,227.71l-17.26,59.58l-0.13,0.44l-2.24,7.75l-2.07,7.13l0.02,0.24H65.76c-1.73-3.73-3-7.25-3.84-10.58
	c-0.57-2.18-0.96-4.28-1.19-6.3c-3.89-34.12,37.1-45.07,37.1-45.07c1.34-1.34,2.67-2.56,3.99-3.67c2.07-1.74,4.11-3.21,6.11-4.43
	c2.76-1.7,5.46-2.94,8.08-3.8c4.77-1.56,9.28-1.86,13.44-1.32L129.63,227.71z"/>
<path class="st1" d="M210,279.39c0,0.28-0.01,0.57-0.02,0.86c-0.01,0.28-0.03,0.57-0.06,0.86c-0.02,0.29-0.05,0.57-0.09,0.86
	c-0.04,0.29-0.08,0.58-0.13,0.87c-0.05,0.35-0.12,0.71-0.19,1.06c-0.05,0.21-0.09,0.42-0.14,0.62c0,0.02-0.01,0.03-0.01,0.05
	c-0.11,0.48-0.24,0.96-0.37,1.44c-0.07,0.25-0.14,0.49-0.22,0.73c-0.08,0.25-0.16,0.5-0.24,0.74c-0.16,0.49-0.33,0.97-0.51,1.45
	c-0.16,0.45-0.34,0.89-0.52,1.32c-0.01,0.03-0.03,0.07-0.04,0.1c-0.02,0.05-0.04,0.09-0.06,0.14c-0.11,0.27-0.23,0.54-0.35,0.81
	c-0.3,0.69-0.62,1.36-0.94,2.01c-0.16,0.33-0.32,0.65-0.49,0.96c-0.14,0.27-0.29,0.55-0.42,0.81c-0.03,0.04-0.05,0.08-0.07,0.12
	c-0.16,0.3-0.32,0.6-0.49,0.89c-0.19,0.34-0.39,0.68-0.58,1.01c-0.13,0.22-0.25,0.43-0.38,0.64c-0.15,0.26-0.31,0.52-0.46,0.76
	c-0.27,0.44-0.53,0.84-0.78,1.22c-0.13,0.21-0.26,0.41-0.39,0.6c-0.42,0.63-0.78,1.15-1.07,1.56c-0.44,0.63-0.71,0.97-0.71,0.97
	h-92.32l-0.02-0.24l2.07-7.13l2.24-7.75l0.13-0.44l17.26-59.58c1.95,0.26,3.83,0.71,5.62,1.29c3.82,1.23,7.24,3.08,10.2,5.1h0.03
	c3.31,2.29,6,4.73,8.02,6.8c2.64,2.72,4.09,4.75,4.09,4.75c2.92-2.31,5.68-3.84,8.29-4.75c4.39-1.54,8.34-1.31,11.84,0
	c4.53,1.7,8.29,5.2,11.27,9.03c5.48,7.02,8.3,15.13,8.3,15.13c4.23,1.13,7.19,2.85,9.19,4.94c0.73,0.76,1.32,1.57,1.81,2.42
	C209.5,274.55,210,276.93,210,279.39z"/>
<path class="st1" d="M300.01,240.9c0,0-0.77,19.4-45.7,9.7v-9.7H300.01z"/>
<path class="st3" d="M209.37,240.89"/>
<path class="st1" d="M254.31,240.9v12.41c0,0-31.15,11.68-44.94-12.41H254.31z"/>
<line class="st9" x1="254.18" y1="302.85" x2="254.18" y2="240.89"/>
<line class="st9" x1="659.01" y1="302.85" x2="659.01" y2="225.23"/>
<line class="st9" x1="659.07" y1="234.73" x2="632.84" y2="214.27"/>
<path class="st6" d="M577.37,78.17H305.03l73.87,131.4h272.68L577.37,78.17z M573.28,87.36l13.97,24.86h0.01l15.3,27.22H524.6
	l-16.35-32.07l-5.41-10.61l-4.79-9.4H573.28z M482.73,87.36l4.04,7.19l22.08,39.27l3.16,5.62h-77.96l-5.68-11.15h-0.01l-5.91-11.6
	L407.5,87.36H482.73z M321.03,87.36h75.23l11.59,20.61l0.01,0.01l6.74,12.01h0.01l10.93,19.45h-77.96L321.03,87.36z M381.8,201.08
	l-26.56-52.09h75.24l29.27,52.09H381.8z M468.43,201.08l-26.55-52.09h75.23l20.44,36.36l7.48,13.32l1.36,2.41H468.43z
	 M558.31,201.08l-23.43-45.95l-3.13-6.14h75.24l7.75,13.81l6.88,12.24l14.64,26.04H558.31z"/>
<polygon class="st2" points="669.97,217.57 664.35,225.23 371.24,225.23 377.37,216.04 659.07,217.51 "/>
<path class="st5" d="M662.57,204.67v-0.01l-3.5-6.08l-39.48-68.8l-34.9-60.81H292.6l5.3,9.19v0.01l6.79,11.77
	c0.71,1.09,1.4,2.24,2.01,3.5l70.67,122.6l259.47,1.35l22.23,0.12l10.9,0.06L662.57,204.67z M378.9,209.57l-73.87-131.4h272.34
	l74.21,131.4H378.9z"/>
<path class="st0" d="M129.71,227.43l-0.08,0.28l-0.18-0.03C129.53,227.6,129.62,227.52,129.71,227.43z"/>
</svg>
