<?xml version="1.0" encoding="utf-8"?>
<!-- Generator: Adobe Illustrator 23.0.3, SVG Export Plug-In . SVG Version: 6.00 Build 0)  -->
<svg version="1.1" id="Layer_1" xmlns="http://www.w3.org/2000/svg" xmlns:xlink="http://www.w3.org/1999/xlink" x="0px" y="0px"
	 viewBox="0 0 400 720" style="enable-background:new 0 0 400 720;" xml:space="preserve">
<style type="text/css">
	.st0{fill:#FFAAEB;}
	.st1{fill:#E4E9FF;}
	.st2{fill:#86A597;}
	.st3{fill:#FCC136;}
	.st4{fill:#FF6C89;}
	.st5{fill:#9CC4B3;}
	.st6{fill:none;stroke:#2300F4;stroke-miterlimit:10;}
	.st7{fill:#F29D22;}
	.st8{fill:#F99012;}
	.st9{fill:#242021;}
	.st10{fill:none;stroke:#577BED;stroke-miterlimit:10;}
	.st11{fill:none;stroke:#242021;stroke-miterlimit:10;}
	.st12{fill:#F5CE87;}
	.st13{fill:#D1D6E5;}
	.st14{fill:#69CDFF;}
</style>
<path class="st0" d="M260.44,86.64C260.44,86.64,260.44,86.64,260.44,86.64c0-0.01-0.91-1.78-2.73-3.55
	c-3.46-3.39-10.19-6.78-20.02,2.21c0,0-3.81,0.44-8.62-1.76c-0.32-0.15-0.64-0.3-0.96-0.47c-0.33-0.17-0.66-0.35-0.99-0.54
	c-0.33-0.19-0.66-0.41-1-0.63c-0.84-0.55-1.69-1.2-2.54-1.94c-0.35-0.3-0.69-0.62-1.02-0.95c-0.68-0.67-1.35-1.39-2.02-2.21
	c-0.34-0.41-0.66-0.82-0.99-1.27c-0.32-0.44-0.64-0.91-0.96-1.4c-0.49-0.72-0.96-1.49-1.41-2.31c-1.22-2.2-2.36-4.75-3.36-7.71
	c0,0-0.04,0.01-0.12,0.02c-0.02,0.01-0.06,0.01-0.09,0.02c-0.04,0.01-0.09,0.02-0.14,0.03c-0.06,0.02-0.12,0.03-0.19,0.04
	c-0.01,0-0.02,0-0.03,0.01c-0.12,0.02-0.27,0.05-0.44,0.08c-0.13,0.03-0.26,0.05-0.4,0.08c-0.23,0.04-0.48,0.09-0.76,0.14
	c-0.14,0.03-0.28,0.05-0.43,0.08c-0.45,0.07-0.95,0.15-1.49,0.23c-0.18,0.02-0.37,0.05-0.56,0.08c-0.2,0.02-0.4,0.05-0.6,0.09
	c-0.2,0.03-0.4,0.06-0.62,0.08c-0.2,0.03-0.42,0.06-0.64,0.09c-1.11,0.13-2.33,0.26-3.63,0.38c-0.51,0.05-1.04,0.09-1.58,0.13
	c-0.27,0.02-0.55,0.03-0.83,0.05c-0.28,0.02-0.56,0.03-0.84,0.04c-0.28,0.02-0.57,0.04-0.86,0.05c-0.01,0-0.01,0-0.02,0
	c-0.57,0.03-1.15,0.05-1.74,0.06c-0.3,0.01-0.6,0.01-0.9,0.01c-1,0.01-2.01,0.01-3.04-0.02h-0.09c-0.54-0.02-1.07-0.04-1.62-0.07
	h-0.06c-0.62-0.03-1.25-0.08-1.88-0.13c-0.6-0.05-1.2-0.11-1.81-0.17c-0.05,0-0.09,0-0.14-0.01c-0.05-0.01-0.11-0.01-0.16-0.02
	c-0.44-0.05-0.87-0.11-1.3-0.16c-0.08-0.01-0.16-0.02-0.24-0.03c-0.74-0.1-1.48-0.22-2.22-0.36c-0.28-0.05-0.56-0.11-0.84-0.16
	c-0.26-0.05-0.52-0.1-0.77-0.16l-0.78-0.17c-0.02,0-0.03-0.01-0.05-0.01c-0.01,0-0.02,0-0.03-0.01c-0.19-0.04-0.4-0.09-0.59-0.15
	c-0.05-0.01-0.09-0.02-0.14-0.03c-0.01-0.01-0.01-0.01-0.02-0.01c-0.24-0.06-0.49-0.13-0.73-0.19c-0.27-0.08-0.53-0.15-0.8-0.23
	c-0.18-0.05-0.36-0.11-0.54-0.16c-0.18-0.05-0.36-0.11-0.53-0.17c-0.35-0.12-0.7-0.23-1.05-0.36c-0.76-0.28-1.52-0.59-2.25-0.92
	c-2.66,5.68-4.59,12.31-5.58,19.54c2.92-1.32,5.68-1.54,6.2-0.5c0.5,1.04-1.47,2.97-4.39,4.29c-0.8,0.36-1.58,0.64-2.31,0.83
	c-0.17,2.15-0.26,4.34-0.26,6.57c0,27.75,13.59,50.25,30.35,50.25c2.54,0,5-0.51,7.36-1.49c1.71-0.12,3.53-0.63,5.42-1.43
	c0.73-0.31,1.47-0.67,2.22-1.06c0.21-0.11,0.42-0.22,0.64-0.35c0.23-0.12,0.46-0.25,0.69-0.39c0.42-0.24,0.84-0.49,1.27-0.76
	c0.17-0.11,0.34-0.2,0.51-0.32c0.17-0.11,0.35-0.22,0.52-0.34c0.13-0.09,0.26-0.16,0.4-0.26l0.01-0.01c0.01,0,0.01,0,0.02-0.01
	c0.01-0.01,0.02-0.01,0.03-0.02c0.01-0.01,0.03-0.02,0.04-0.02c0.08-0.06,0.15-0.12,0.23-0.16c0.58-0.4,1.17-0.81,1.75-1.24
	c0.4-0.28,0.79-0.58,1.18-0.88c0.34-0.25,0.68-0.51,1.01-0.78c0.33-0.26,0.66-0.52,0.99-0.79c0.66-0.53,1.31-1.07,1.94-1.62
	c0.29-0.24,0.57-0.48,0.85-0.74c0.74-0.65,1.45-1.29,2.14-1.92c0.58-0.54,1.15-1.07,1.7-1.61c0.1-0.09,0.19-0.17,0.28-0.26
	c0.22-0.21,0.43-0.42,0.64-0.62c0.56-0.56,1.1-1.09,1.62-1.61c0.49-0.5,0.97-0.98,1.4-1.43c0.01-0.01,0.02-0.02,0.03-0.03
	c0.21-0.22,0.42-0.44,0.61-0.65c0.1-0.11,0.2-0.21,0.3-0.32c0.98-1.03,1.73-1.86,2.17-2.35c0.04-0.05,0.09-0.1,0.13-0.14
	c0.02-0.04,0.05-0.06,0.07-0.08c0.04-0.05,0.07-0.1,0.11-0.13c0.03-0.04,0.06-0.07,0.08-0.1c0.02-0.03,0.04-0.05,0.05-0.06
	c0.03-0.04,0.04-0.05,0.04-0.05s0.83-0.44,0.55,0.53c-0.28,0.99-8.97,10.68-8.97,10.68s-0.01,0.01-0.01,0.03
	c-0.46,0.69-8.52,13.01-10.93,12.21c-0.34,0.04-0.67,0.09-1,0.14h-0.01c-0.05,0-0.1,0.01-0.15,0.02c-0.27,0.04-0.53,0.07-0.79,0.11
	c-1.52,0.21-2.89,0.44-4.09,0.66c1.11,10.11,4.48,14.42,6.53,16.15c0.53,0.44,0.97,0.73,1.26,0.88c0.26,0.15,0.4,0.19,0.4,0.19
	c0.03,0,0.07,0.01,0.1,0.01v0.03c0.64,0.22,4.46,1.33,11.23-1.44c0.01-0.01,0.03-0.01,0.05-0.02c3.72-1.34,7.13-3.47,10.19-6
	c0.02-0.01,0.04-0.03,0.06-0.05c3.25-2.44,6.85-5.61,10.8-9.72l-0.26-1.89l-2.75-19.84l-3.11-13.5h-4.66v-0.72
	C265.98,103.28,260.44,86.64,260.44,86.64z M173.32,92.87c-0.88,0-1.59-0.69-1.59-1.53c0-0.1,0.01-0.18,0.03-0.27
	c0-0.03,0.01-0.06,0.02-0.09c0.01-0.06,0.03-0.12,0.05-0.17c0.01-0.04,0.03-0.08,0.05-0.12c0.03-0.08,0.07-0.15,0.12-0.21
	c0.06-0.09,0.12-0.16,0.2-0.23c0.07-0.07,0.15-0.14,0.23-0.19c0.17-0.11,0.36-0.19,0.57-0.23c0.1-0.02,0.21-0.03,0.32-0.03
	s0.22,0.01,0.32,0.03c0.21,0.04,0.4,0.13,0.57,0.23c0.08,0.06,0.16,0.13,0.23,0.19c0.08,0.07,0.14,0.15,0.2,0.23
	c0.05,0.07,0.09,0.14,0.12,0.21c0.02,0.04,0.04,0.08,0.05,0.12c0.02,0.06,0.04,0.12,0.06,0.17c0,0.03,0.01,0.06,0.01,0.09
	c0.02,0.09,0.03,0.17,0.03,0.27C174.91,92.19,174.2,92.87,173.32,92.87z M193.84,97c-0.1,0-0.2-0.01-0.29-0.03
	c-0.09-0.01-0.19-0.04-0.27-0.08c-0.07-0.02-0.13-0.05-0.19-0.09c-0.11-0.05-0.2-0.12-0.29-0.19c-0.03-0.02-0.06-0.05-0.08-0.07
	c-0.29-0.28-0.46-0.66-0.46-1.08c0-0.1,0.01-0.18,0.03-0.27c0.01-0.07,0.02-0.14,0.05-0.19c0.02-0.07,0.04-0.13,0.07-0.18
	c0.04-0.09,0.09-0.17,0.15-0.25c0.01-0.02,0.03-0.05,0.06-0.07c0.02-0.04,0.05-0.07,0.08-0.1c0.03-0.04,0.06-0.06,0.09-0.09
	c0.01-0.02,0.03-0.03,0.05-0.04c0.07-0.06,0.15-0.12,0.23-0.15c0.01-0.01,0.03-0.02,0.04-0.02c0.09-0.05,0.19-0.09,0.3-0.12
	c0.02-0.02,0.05-0.02,0.08-0.03c0.03-0.01,0.05-0.01,0.08-0.01c0.09-0.02,0.18-0.03,0.27-0.03c0.11,0,0.22,0.01,0.32,0.03
	c0.01,0,0.01,0,0.01,0c0.21,0.04,0.4,0.13,0.57,0.23c0.08,0.06,0.16,0.13,0.23,0.19c0.07,0.07,0.14,0.14,0.19,0.22
	c0.05,0.07,0.09,0.15,0.13,0.22c0.02,0.04,0.04,0.08,0.05,0.12c0.03,0.07,0.05,0.15,0.07,0.23c0.02,0.1,0.03,0.19,0.03,0.3
	C195.44,96.32,194.73,97,193.84,97z M203.39,92.61c-0.85,0.81-3.38-0.32-5.68-2.53c-2.28-2.22-3.45-4.66-2.61-5.48
	c0.84-0.81,3.38,0.32,5.67,2.53C203.05,89.34,204.23,91.8,203.39,92.61z M210.08,103.46c-1.79,0-3.24-1.4-3.24-3.12
	c0-1.73,1.45-3.13,3.24-3.13s3.24,1.4,3.24,3.13C213.32,102.05,211.87,103.46,210.08,103.46z M241.89,94.96c0,0,3.65-5.73,11.29-3.8
	c0,0,0.41,0.67,0,1.03c0,0-7.22-1.43-9.9,3.63C243.28,95.81,242.08,96.17,241.89,94.96z"/>
<path class="st1" d="M312.24,325.5c-8.29,1.02-16.3,1.68-24.01,2.06c-0.54-1.07-0.87-2.45-1.01-4.07
	c14.2-0.73,24.75-2.31,24.75-2.31C312.05,322.62,312.14,324.06,312.24,325.5z"/>
<path class="st2" d="M323.02,374.33c-3.29,7.22-6.89,12.01-10.69,12.3c-1.66,0.13-3.21,0.46-4.66,0.99
	c-5.99-23.11-14.87-44.54-14.87-44.54l-0.26-0.44c6.78-0.6,13.86-1.38,21.24-2.37c1.59,11.42,4.17,22.04,8.12,30.81
	C322.29,371.95,322.66,373.04,323.02,374.33z"/>
<path class="st3" d="M196.16,338.14c-18.54-4.27-29.47-9.64-34.08-12.27c-1.75-1-2.59-1.6-2.59-1.6c1.04-3.72,2.06-6.87,3.01-9.36
	c0-0.01,0-0.02,0-0.02c1.11-2.91,2.12-4.91,2.97-5.87c0.41-0.46,0.82-1,1.22-1.58c0,0,10.83,5.52,30.43,10.84
	C197.12,318.28,194.68,331.38,196.16,338.14z"/>
<path class="st3" d="M311.92,282.02c-0.26,6.25-0.44,12.79-0.45,19.42c-16.1,2.89-43.1-2.21-64.15-7.41
	c-0.48-0.12-0.96-0.23-1.43-0.35c-15.23-3.81-27.05-7.56-28.82-8.12c0.01-0.84,0.04-1.7,0.07-2.56c0.03-0.9,0.08-1.81,0.14-2.73
	c0.11-1.85,0.26-3.73,0.44-5.65c0.15-1.62,0.33-3.26,0.54-4.9c0.02-0.2,0.04-0.42,0.07-0.62c0,0,6.31,1.84,15.65,4.29
	c-10.62-45.4,36.69-126.63,36.69-126.63c7.54,2.88,14.2,7.74,14.2,7.74c-14.78,2.27-28.48,41.05-28.22,58.04
	c0.02,1.5,0.15,2.82,0.39,3.95c-10.92,25.03-4.98,48.4,1.3,62.81C282.17,284.58,308.44,288.67,311.92,282.02z"/>
<path class="st4" d="M233.98,273.39c-9.34-2.46-15.65-4.29-15.65-4.29c0.02-0.17,0.04-0.35,0.07-0.52c0.13-1.07,0.28-2.16,0.44-3.24
	c0.18-1.26,0.37-2.51,0.57-3.78c0.4-2.52,0.84-5.06,1.31-7.57c2.13-11.39,4.88-22.51,7.35-31.56c3.39-12.46,6.25-21,6.25-21
	c3.57-23.71,24.51-56.55,24.51-56.55c3.62-0.6,7.85,0.37,11.84,1.89C270.68,146.76,223.36,227.99,233.98,273.39z"/>
<path class="st4" d="M312.71,267.36c-0.3,4.63-0.58,9.55-0.79,14.65v0.01c-3.48,6.65-29.75,2.56-53.57-2.72
	c-6.28-14.41-12.22-37.78-1.3-62.81c0.05,0.21,0.11,0.44,0.18,0.67c0.07,0.21,0.15,0.44,0.24,0.66c0.11,0.3,0.25,0.61,0.4,0.92
	c0.09,0.18,0.19,0.38,0.29,0.57c0.14,0.27,0.3,0.54,0.47,0.82c0.15,0.26,0.32,0.53,0.51,0.81c0.15,0.24,0.31,0.48,0.48,0.73
	c0.05,0.07,0.1,0.15,0.15,0.21c0.18,0.25,0.36,0.51,0.56,0.77c0.11,0.15,0.23,0.32,0.36,0.48c0.32,0.43,0.67,0.86,1.04,1.31
	c0.43,0.53,0.9,1.08,1.39,1.64c0.06,0.08,0.13,0.15,0.21,0.23c0.52,0.6,1.08,1.22,1.67,1.84c0.35,0.37,0.7,0.74,1.06,1.11
	c0.3,0.32,0.62,0.64,0.93,0.96c0.69,0.69,1.39,1.38,2.13,2.1c0.36,0.35,0.72,0.7,1.09,1.04c2.43,2.31,5.08,4.68,7.81,7.04
	c0.44,0.39,0.88,0.76,1.33,1.14c0.97,0.83,1.95,1.65,2.93,2.47c0.82,0.69,1.64,1.36,2.46,2.04c1.36,1.11,2.72,2.21,4.06,3.28
	c0.76,0.61,1.51,1.2,2.26,1.8c2.9,2.28,5.7,4.44,8.27,6.38c0.37,0.28,0.73,0.56,1.09,0.82c0.61,0.46,1.21,0.91,1.78,1.33
	c0.01,0.01,0.02,0.02,0.02,0.02c0.53,0.4,1.05,0.78,1.55,1.16c0.43,0.32,0.85,0.63,1.25,0.93c0.52,0.38,1.02,0.74,1.49,1.09
	c0.43,0.32,0.85,0.62,1.24,0.91C310.83,266.03,312.71,267.36,312.71,267.36z"/>
<path class="st2" d="M328.6,440.98l-21.07,3.34c0.78-3.1,1.65-5.65,2.63-7.54c1.64-3.16,2.49-7.22,2.76-11.85h6.77
	c0,0,2.75-1.94,7.22-5.58l0.85-0.08C328.09,426.06,328.37,433.34,328.6,440.98z"/>
<path class="st5" d="M312.92,424.92c-0.27,4.63-1.12,8.69-2.76,11.85c-0.98,1.9-1.85,4.45-2.63,7.54l-30.82,4.88v-25.26l19.03-1.74
	l3.95,2.73H312.92z"/>
<path class="st6" d="M327.76,419.26l-0.85,0.08c0.26-0.21,0.54-0.44,0.82-0.67C327.73,418.87,327.74,419.07,327.76,419.26z"/>
<path class="st3" d="M313.78,340.28c-7.38,0.99-14.46,1.77-21.24,2.37c-25.59,2.29-47.01,2.04-64.67,0.44
	c-1.09-6.27,1.05-18.25,1.05-18.25c16.89,2.46,36.82,3.83,59.31,2.73c7.71-0.38,15.72-1.04,24.01-2.06
	C312.6,330.52,313.1,335.47,313.78,340.28z"/>
<path class="st7" d="M227.87,343.08c-12.38-1.12-22.9-2.9-31.71-4.94c-1.48-6.76,0.96-19.86,0.96-19.86
	c8.87,2.4,19.53,4.76,31.8,6.55C228.92,324.83,226.78,336.81,227.87,343.08z"/>
<path class="st3" d="M319.69,488.47c0,0-2.8,59.1-38.04,62.56h-42.18v-59.6l15.64-19.93v-0.01l2.54-3.23l-0.38,21.58h19.44v-36.12
	l26.69,21.58L319.69,488.47z"/>
<polygon class="st8" points="387.79,471.68 387.79,526.01 329.46,547.44 319.69,551.03 319.69,488.47 329.43,486.07 338.22,483.9 
	337.56,491.92 359.52,485.01 359.52,478.65 "/>
<polygon class="st8" points="359.52,478.65 359.52,478.36 357.31,472.83 335.01,477.94 338.22,483.9 329.43,486.07 319.69,488.47 
	303.4,475.3 276.71,453.72 276.71,449.2 307.53,444.31 328.6,440.98 352.03,437.26 367.39,452.05 387.79,471.68 "/>
<path class="st9" d="M295.74,422.19l-19.03,1.74v65.91h-19.44l0.38-21.58l0.94-53.23l31.18-4.44l5.36-0.76
	C302.06,415.25,295.74,422.19,295.74,422.19z"/>
<path class="st9" d="M367.39,405.65v46.4l-15.36-14.79l0.26-20.24l-24.53,2.24l-0.85,0.08c0.26-0.21,0.54-0.44,0.82-0.67
	c3.92-3.21,9.01-7.61,14.66-13.02H367.39z"/>
<polygon class="st9" points="359.53,478.36 359.53,485.01 337.57,491.92 338.23,483.9 335.01,477.93 357.32,472.83 "/>
<path class="st1" d="M352.14,210.48c-0.59-0.15-23.52-5.74-57.85,36.55c-1.06,1.32-2.15,2.69-3.24,4.1c-0.75-0.6-1.5-1.19-2.26-1.8
	c-1.34-1.07-2.7-2.17-4.06-3.28c-0.82-0.68-1.64-1.35-2.46-2.04c-0.98-0.81-1.96-1.63-2.93-2.47c-0.45-0.38-0.89-0.75-1.33-1.14
	c-2.73-2.36-5.38-4.73-7.81-7.04c-0.37-0.35-0.73-0.7-1.09-1.04c-0.74-0.72-1.44-1.41-2.13-2.1c-0.31-0.32-0.63-0.64-0.93-0.96
	c-0.36-0.38-0.71-0.74-1.06-1.11c-0.59-0.62-1.15-1.24-1.67-1.84c-0.08-0.08-0.15-0.15-0.21-0.23c-0.49-0.56-0.96-1.11-1.39-1.64
	c-0.37-0.44-0.72-0.88-1.04-1.31c-0.13-0.16-0.25-0.33-0.36-0.48c-0.2-0.26-0.38-0.52-0.56-0.77c-0.05-0.07-0.1-0.15-0.15-0.21
	c-0.17-0.24-0.33-0.48-0.48-0.73c-0.18-0.27-0.35-0.54-0.51-0.81c-0.17-0.28-0.33-0.55-0.47-0.82c-0.1-0.19-0.2-0.39-0.29-0.57
	c-0.15-0.31-0.29-0.62-0.4-0.92c-0.09-0.22-0.17-0.44-0.24-0.66c-0.07-0.23-0.13-0.45-0.18-0.67c-0.24-1.12-0.37-2.45-0.39-3.95
	c-0.26-16.99,13.44-55.77,28.22-58.04C284.88,154.5,320.79,177.58,352.14,210.48z"/>
<path class="st2" d="M360.95,220.12h-0.01c-26.56-3.24-42.88,15.32-50.95,28.46c-4.24,6.88-6.21,12.27-6.21,12.27
	c-0.5-0.38-1.02-0.76-1.55-1.16c0,0-0.01-0.01-0.02-0.02c-0.57-0.43-1.17-0.87-1.78-1.33c-0.36-0.26-0.72-0.54-1.09-0.82
	c-2.57-1.94-5.37-4.1-8.27-6.38c1.09-1.41,2.18-2.79,3.24-4.1c34.32-42.29,57.25-36.71,57.85-36.55c0.01,0,0.01,0,0.01,0
	C355.14,213.6,358.08,216.82,360.95,220.12z"/>
<path class="st0" d="M398,297.98c0.33,45.89-32.36,85.41-55.6,107.67c-5.65,5.41-10.74,9.81-14.66,13.02
	c-0.28,0.23-0.56,0.45-0.82,0.67c-4.47,3.64-7.22,5.58-7.22,5.58h-20l-3.95-2.73c0,0,6.32-6.94-0.61-12.36l-5.36,0.76
	c0,0,4.93-18.38,17.9-22.97c1.45-0.52,3-0.86,4.66-0.99c3.8-0.29,7.4-5.09,10.69-12.3c10.94-24.04,18.42-74.88,18.42-74.88
	s-0.08-0.71-0.35-1.92c-1.11-5.08-5.44-19.02-20.42-26.92l-10.69-22.03c8.07-13.14,24.39-31.7,50.95-28.46h0.01
	C381.29,243.53,397.8,270.85,398,297.98z"/>
<path class="st6" d="M190.32,150.95"/>
<path class="st10" d="M294.3,247.03c-7.14-12.26-16.22-30.5-14.1-40.76"/>
<path class="st8" d="M319.69,488.47v62.56h-38.04C316.89,547.57,319.69,488.47,319.69,488.47z"/>
<path class="st4" d="M311.97,321.17c0,0-10.55,1.59-24.75,2.31c0,0-0.01-0.01-0.01-0.02l-0.01,0.02
	c-18.87,0.97-44.17,0.42-59.64-7.35c-1.21-0.61-2.3-1.39-3.27-2.33c-0.39-0.38-0.76-0.77-1.12-1.2c-2.71-3.25-4.4-7.92-5.29-13.52
	c-0.09-0.48-0.16-0.99-0.23-1.49c-0.48-3.69-0.66-7.74-0.58-12.03c1.77,0.56,13.59,4.31,28.82,8.12c0.47,0.12,0.95,0.23,1.43,0.35
	c21.04,5.19,48.04,10.3,64.15,7.41C311.46,307.97,311.6,314.61,311.97,321.17z"/>
<path class="st6" d="M217.07,285.56c-0.15-0.05-0.23-0.08-0.23-0.08"/>
<path class="st1" d="M288.23,327.56c-22.48,1.1-42.41-0.27-59.31-2.73c-12.27-1.79-22.93-4.15-31.8-6.55
	c-19.6-5.32-30.43-10.84-30.43-10.84c1.05-1.52,2.09-3.42,3.09-5.57c2.24-4.8,4.3-10.78,6-16.39c2.83-9.33,4.67-17.62,4.67-17.62
	c5.44-2.51,9.27-51.52,9.81-58.71c0.22-0.24,0.26-0.53,0.06-0.88c0,0,8.61-60.53,5.17-61.5c4.96-2.07,11.26-2.07,11.26-2.07
	s2.02-0.56,5.54-1.21c1.11,10.11,4.48,14.42,6.53,16.15c0.53,0.44,0.97,0.73,1.26,0.88c0.26,0.15,0.4,0.19,0.4,0.19
	s0.03,0.01,0.1,0.04c0.64,0.22,4.46,1.33,11.23-1.44c0.01-0.01,0.03-0.01,0.05-0.02c3.72-1.34,7.13-3.47,10.19-6
	c0.02-0.01,0.04-0.03,0.06-0.05c3.25-2.44,6.85-5.61,10.8-9.72c1.95,0.38,3.93,0.83,5.92,1.35c0,0-20.94,32.84-24.51,56.55
	c0,0-2.86,8.54-6.25,21c-2.47,9.05-5.22,20.17-7.35,31.56c-0.47,2.51-0.91,5.05-1.31,7.57c-0.2,1.27-0.39,2.52-0.57,3.78
	c-0.16,1.08-0.31,2.17-0.44,3.24c-0.03,0.17-0.05,0.35-0.07,0.52c-0.03,0.2-0.05,0.42-0.07,0.62c-0.21,1.64-0.39,3.29-0.54,4.9
	c-0.18,1.92-0.33,3.8-0.44,5.65c-0.06,0.92-0.11,1.83-0.14,2.73c-0.03,0.86-0.06,1.72-0.07,2.56c-0.08,4.29,0.1,8.35,0.58,12.03
	c0.07,0.5,0.14,1.01,0.23,1.49c0.89,5.6,2.58,10.27,5.29,13.52c0.36,0.43,0.73,0.82,1.12,1.2c0.97,0.94,2.06,1.72,3.27,2.33
	c15.46,7.77,40.76,8.32,59.64,7.35c0.01,0,0.02,0,0.02,0C287.36,325.11,287.69,326.48,288.23,327.56z"/>
<path class="st11" d="M341.1,297.53c0,0,3.87-10.75,0-15.52"/>
<line class="st11" x1="303.35" y1="424.92" x2="307.53" y2="420.14"/>
<line class="st11" x1="308.74" y1="424.92" x2="312.92" y2="420.14"/>
<line class="st11" x1="315.13" y1="424.92" x2="319.31" y2="420.14"/>
<path class="st3" d="M154.66,327.45v17.81c-0.92,4.82-1.8,9.99-2.62,15.48c0,0-12.44-1.02-17.21-7.27
	c-3.44-4.52-1.91-20.89-0.8-29.62h0.01C141.13,327.17,149.72,327.56,154.66,327.45z"/>
<path class="st9" d="M158.7,327.21c-1.36,5.17-2.74,11.24-4.04,18.05v-17.81C157.14,327.39,158.7,327.21,158.7,327.21z"/>
<path class="st7" d="M162.5,314.88c0,0,0,0.01,0,0.02c-0.95,2.5-1.97,5.64-3.01,9.36c-0.26,0.95-0.53,1.92-0.79,2.94
	c0,0-1.56,0.18-4.04,0.24c-4.94,0.11-13.53-0.28-20.62-3.61h-0.01c0.43-3.35,0.8-5.56,0.8-5.56
	C144.36,308.77,162.5,314.88,162.5,314.88z"/>
<path class="st3" d="M180.45,267.85c0,0-1.84,8.29-4.67,17.62l-19.59,4.22c-0.19-3.77,0.01-8.19,0.51-13.1
	c0.11-1.04,0.23-2.11,0.37-3.2c0.56-4.53,1.35-9.41,2.33-14.53c0.12-0.67,0.25-1.33,0.39-2.01c0-0.01,0-0.01,0-0.02
	c0.14-0.72,0.29-1.44,0.43-2.17c0.13-0.63,0.26-1.27,0.4-1.91c0.19-0.92,0.39-1.84,0.59-2.77c0.13-0.6,0.26-1.21,0.4-1.82
	c0.13-0.63,0.28-1.26,0.42-1.9c0.81-3.59,1.68-7.24,2.6-10.93c0.81-3.22,1.65-6.47,2.51-9.71c0.28-1.08,0.57-2.16,0.87-3.24
	c0.36-1.34,0.73-2.69,1.1-4.03c0.52-1.88,1.05-3.75,1.58-5.62c0.3-1.06,0.6-2.12,0.91-3.17c0.52-1.83,1.05-3.64,1.58-5.43
	c0.08-0.28,0.17-0.56,0.25-0.84c0.46-1.58,0.93-3.13,1.39-4.66c1.36-4.53,2.71-8.9,4.01-13.04c-5.22,27.4-10.07,85.01-10.07,85.01
	L180.45,267.85z"/>
<path class="st4" d="M175.78,285.47c-1.7,5.61-3.76,11.6-6,16.39c-0.17,0.38-1.25,0.42-1.25,0.42c-8.24,3.38-11.79-2.06-12.34-12.59
	L175.78,285.47z"/>
<line class="st6" x1="156.19" y1="289.69" x2="156.12" y2="289.71"/>
<path class="st0" d="M30.61,224.58c-0.87,0.2-1.51,0.28-1.51,0.28c0.61,0.43,1.11,0.84,1.51,1.23v0.01c2.24,2.19,1.33,3.7,0.13,4.59
	c-0.9,0.7-1.97,1.03-1.97,1.03l-0.05,0.01c5.53,3.54-2.78,5.11-2.78,5.11c12.16,5.33-1.63,7.65-1.63,7.65s-7,1.34-10.92,0.27
	c-0.02,0-0.03,0-0.05-0.02l0.01,0.04v0.01c-1.22,0.69-2.32,1.39-3.32,2.1l-0.09-0.06c-5.03-15.14,0.43-31.11,7.07-38.47
	c1.27-0.18,2.48-0.25,3.62-0.2c0.16,1.39,0.47,2.65,0.79,3.68c0.05,0.02,0.1,0.04,0.15,0.06C42.82,220.57,34.46,223.71,30.61,224.58
	z"/>
<path class="st6" d="M9.97,246.94c-0.01-0.04-0.02-0.07-0.03-0.11"/>
<path class="st12" d="M39.96,229.77c0.2,0.66,0.36,1.23,0.49,1.7l-2.55-8.01c0.39,1.07,0.73,2.1,1.05,3.07
	C39.35,227.74,39.68,228.83,39.96,229.77z"/>
<path class="st0" d="M159.14,251.12L159.14,251.12l-6.02,27.11c-65.81,25.04-103.25,1.96-119.49-13.63
	c0.39-1.53,0.52-3.04,0.47-4.51c0,0,0,0,0-0.01c-0.29-7.01-4.85-12.85-4.85-12.85l3.65-10.02l1.21-3.33l0.09-0.25
	c0.89-0.18,1.85-0.46,2.72-0.76c1.66-0.57,3.01-1.18,3.01-1.18l0.51-0.2c0.01-0.01,0.01-0.01,0.01-0.01c0.27,0.95,0.41,1.5,0.41,1.5
	c31.66,23.07,73.21,11.16,73.21,11.16c4.12-12.35,9.61-23.48,15.76-33.36C129.82,210.77,154.49,223.44,159.14,251.12z"/>
<path class="st12" d="M33.63,264.6l0.47-4.51C34.15,261.56,34.02,263.07,33.63,264.6z"/>
<path class="st2" d="M164.63,235.35c-0.92,3.69-1.79,7.34-2.6,10.93c-0.14,0.64-0.29,1.27-0.42,1.9c-0.14,0.61-0.27,1.22-0.4,1.82
	c-0.2,0.93-0.4,1.85-0.59,2.77c-0.14,0.64-0.27,1.28-0.4,1.91c-0.14,0.73-0.29,1.45-0.43,2.17c-0.12-1.96-0.34-3.86-0.65-5.7v-0.01
	c-0.51-3.03-1.26-5.87-2.19-8.54c-0.53-1.53-1.12-3-1.76-4.41c-0.16-0.36-0.32-0.71-0.48-1.05c-0.33-0.7-0.67-1.36-1.03-2.02
	c-0.17-0.34-0.35-0.67-0.53-1c-0.36-0.65-0.73-1.28-1.11-1.9c-0.95-1.56-1.95-3.03-2.97-4.4c-0.41-0.55-0.82-1.08-1.25-1.61
	c-1.67-2.09-3.39-3.97-5.08-5.62c-0.2-0.21-0.42-0.43-0.63-0.61c-1.47-1.4-2.9-2.64-4.23-3.72c-0.39-0.31-0.76-0.6-1.13-0.88
	c-0.72-0.56-1.42-1.07-2.06-1.53c-0.33-0.23-0.64-0.44-0.94-0.65c-0.29-0.2-0.58-0.4-0.85-0.57c-1.89-1.23-3.07-1.84-3.07-1.84
	v-0.01c2.08-3.36,4.25-6.56,6.45-9.62C136.27,201.15,167.75,222.11,164.63,235.35z"/>
<path class="st1" d="M190.32,150.96c0,0-5.17,14.55-11.49,34.65c-1.3,4.14-2.65,8.51-4.01,13.04c-0.46,1.53-0.93,3.09-1.39,4.66
	c-0.08,0.28-0.17,0.56-0.25,0.84c-0.53,1.79-1.06,3.6-1.58,5.43c-0.31,1.05-0.61,2.11-0.91,3.17c-0.53,1.87-1.06,3.74-1.58,5.62
	c-0.37,1.34-0.74,2.69-1.1,4.03c-0.3,1.08-0.59,2.16-0.87,3.24c-0.86,3.24-1.7,6.49-2.51,9.71c3.12-13.24-28.35-34.2-28.35-34.2
	C160.41,167.64,190.32,150.96,190.32,150.96z"/>
<line class="st6" x1="156.71" y1="276.58" x2="156.7" y2="276.59"/>
<path class="st11" d="M114.07,244.14c0,0,4.08-3.3,9.87,0"/>
<path class="st9" d="M260.45,86.64c0,0-7.77-15.03-22.75-1.34c0,0-3.81,0.44-8.62-1.76c-5.07-2.31-11.25-7.58-15.25-19.43v-0.01
	c0,0-0.04,0.01-0.12,0.03c-0.02,0.01-0.06,0.01-0.09,0.02c-0.08,0.02-0.19,0.05-0.33,0.07c-0.01,0-0.02,0-0.03,0.01
	c-0.12,0.02-0.27,0.05-0.44,0.08c-0.13,0.03-0.26,0.05-0.4,0.08c-0.23,0.04-0.48,0.09-0.76,0.14c-0.14,0.03-0.28,0.05-0.43,0.08
	c-0.45,0.07-0.95,0.15-1.49,0.23c-0.18,0.02-0.37,0.05-0.56,0.08c-0.2,0.02-0.4,0.05-0.6,0.09c-0.4,0.06-0.82,0.11-1.26,0.16
	c-1.11,0.13-2.33,0.26-3.63,0.38c-0.51,0.05-1.04,0.09-1.58,0.13c-0.27,0.02-0.55,0.03-0.83,0.05c-0.56,0.03-1.12,0.06-1.7,0.09
	c-0.01,0-0.01,0-0.02,0c-0.57,0.03-1.15,0.05-1.74,0.06c-0.3,0.01-0.6,0.01-0.9,0.01c-1,0.01-2.01,0.01-3.04-0.02h-0.09
	c-0.54-0.02-1.07-0.04-1.62-0.07h-0.06c-0.62-0.03-1.25-0.08-1.88-0.13c-0.6-0.05-1.2-0.11-1.81-0.17c-0.05,0-0.09,0-0.14-0.01
	c-0.05-0.01-0.11-0.01-0.16-0.02c-0.44-0.05-0.87-0.11-1.3-0.16c-0.08-0.01-0.16-0.02-0.24-0.03c-0.74-0.1-1.48-0.22-2.22-0.36
	c-0.28-0.05-0.56-0.11-0.84-0.16c-0.26-0.05-0.52-0.1-0.77-0.16l-0.78-0.17c-0.02,0-0.03-0.01-0.05-0.01c-0.01,0-0.02,0-0.03-0.01
	c-0.19-0.04-0.4-0.09-0.59-0.15c-0.05-0.01-0.09-0.02-0.14-0.03c-0.01-0.01-0.01-0.01-0.02-0.01c-0.24-0.06-0.49-0.13-0.73-0.19
	c-0.27-0.08-0.53-0.15-0.8-0.23c-0.18-0.05-0.36-0.11-0.54-0.16c-0.18-0.05-0.36-0.11-0.53-0.17c-0.35-0.12-0.7-0.23-1.05-0.36
	c-0.76-0.28-1.52-0.59-2.25-0.92c-2.76-1.24-5.28-2.87-7.38-4.97h87.22C258.1,64.65,260.06,74.3,260.45,86.64z"/>
<path class="st6" d="M213.82,64.1L213.82,64.1c0,0.01-0.04,0.02-0.12,0.03C213.78,64.11,213.82,64.1,213.82,64.1z"/>
<path class="st6" d="M194.17,93.94c0.21,0.05,0.4,0.13,0.57,0.23C194.57,94.07,194.38,93.98,194.17,93.94z M173.64,89.82
	c0.21,0.05,0.4,0.13,0.57,0.23C174.04,89.95,173.85,89.86,173.64,89.82z M172.43,90.06c0.17-0.11,0.36-0.18,0.57-0.23
	C172.79,89.86,172.6,89.95,172.43,90.06z"/>
<path class="st6" d="M166.38,85.57"/>
<path class="st9" d="M171.46,85.47c-0.8,0.36-1.58,0.64-2.31,0.83c-1.97,0.53-3.55,0.44-3.92-0.32c-0.51-1.04,1.46-2.97,4.39-4.29
	c0.01-0.01,0.02-0.01,0.03-0.01c2.92-1.32,5.68-1.54,6.2-0.5C176.35,82.22,174.38,84.15,171.46,85.47z"/>
<path class="st11" d="M182.38,83.58l-0.83,18.53c0,0,1.2,2.95,3.79,2.77"/>
<path class="st11" d="M185.34,112.31c0,0,9.25,1.25,11.84-8.86"/>
<path class="st6" d="M314.18,242.4"/>
<path class="st11" d="M11.92,233.4c5.19,3.42,14.02,3.44,14.02,3.44"/>
<path class="st11" d="M28.72,231.73c-2.2-1.42-6.59-3.14-14.55-5.2"/>
<path class="st11" d="M29.1,224.87c-2.37-1.67-6.48-3.68-13.26-6.01"/>
<line class="st6" x1="30.75" y1="230.7" x2="30.75" y2="230.69"/>
<path class="st9" d="M253.19,92.18c0,0-7.22-1.43-9.9,3.63c0,0-1.2,0.36-1.39-0.85c0,0,3.65-5.73,11.29-3.8
	C253.19,91.16,253.6,91.83,253.19,92.18z"/>
<path class="st9" d="M195.44,95.46c0,0.85-0.71,1.54-1.6,1.54c-0.1,0-0.2-0.01-0.29-0.03c-0.09-0.01-0.19-0.04-0.27-0.08
	c-0.07-0.02-0.13-0.05-0.19-0.09c-0.11-0.05-0.2-0.12-0.29-0.19c-0.03-0.02-0.06-0.05-0.08-0.07c-0.29-0.28-0.46-0.66-0.46-1.08
	c0-0.1,0.01-0.18,0.03-0.27c0.01-0.07,0.02-0.14,0.05-0.19c0.02-0.07,0.04-0.13,0.07-0.18c0.04-0.09,0.09-0.17,0.15-0.25
	c0.01-0.02,0.03-0.05,0.06-0.07c0.02-0.04,0.05-0.07,0.08-0.1c0.03-0.04,0.06-0.06,0.09-0.09c0.01-0.02,0.03-0.03,0.05-0.04
	c0.07-0.06,0.15-0.12,0.23-0.15c0.01-0.01,0.03-0.02,0.04-0.02c0.09-0.05,0.19-0.09,0.3-0.12c0.02-0.02,0.05-0.02,0.08-0.03
	c0.03-0.01,0.05-0.01,0.08-0.01c0.09-0.02,0.18-0.03,0.27-0.03c0.11,0,0.22,0.01,0.32,0.03c0.01,0,0.01,0,0.01,0
	c0.21,0.05,0.4,0.13,0.57,0.23c0.08,0.06,0.16,0.13,0.23,0.19c0.07,0.07,0.14,0.14,0.19,0.22c0.05,0.07,0.09,0.15,0.13,0.22
	c0.02,0.04,0.04,0.08,0.05,0.12c0.03,0.07,0.05,0.15,0.07,0.23C195.43,95.26,195.44,95.36,195.44,95.46z"/>
<path class="st9" d="M174.91,91.34c0,0.84-0.71,1.53-1.59,1.53c-0.88,0-1.59-0.69-1.59-1.53c0-0.1,0.01-0.18,0.03-0.27
	c0-0.03,0.01-0.06,0.02-0.09c0.01-0.06,0.03-0.12,0.05-0.17c0.01-0.04,0.03-0.08,0.05-0.12c0.03-0.08,0.07-0.15,0.12-0.21
	c0.06-0.09,0.12-0.16,0.2-0.23c0.07-0.07,0.15-0.14,0.23-0.19c0.17-0.11,0.36-0.18,0.57-0.23c0.1-0.02,0.21-0.03,0.32-0.03
	c0.11,0,0.22,0.01,0.32,0.03c0.21,0.05,0.4,0.13,0.57,0.23c0.08,0.06,0.16,0.13,0.23,0.19c0.08,0.07,0.14,0.15,0.2,0.23
	c0.05,0.07,0.09,0.14,0.12,0.21c0.02,0.04,0.04,0.08,0.05,0.12c0.02,0.06,0.04,0.12,0.06,0.17c0,0.03,0.01,0.06,0.01,0.09
	C174.9,91.16,174.91,91.25,174.91,91.34z"/>
<path class="st9" d="M203.39,92.61c-0.85,0.81-3.38-0.32-5.68-2.53c-2.28-2.22-3.45-4.66-2.61-5.48c0.84-0.81,3.38,0.32,5.67,2.53
	C203.05,89.34,204.23,91.8,203.39,92.61z"/>
<path class="st4" d="M213.32,100.33c0,1.72-1.45,3.12-3.24,3.12c-1.79,0-3.24-1.4-3.24-3.12c0-1.73,1.45-3.13,3.24-3.13
	C211.87,97.19,213.32,98.6,213.32,100.33z"/>
<path class="st6" d="M309.98,248.58"/>
<path class="st9" d="M320.67,270.61c-2.38-1.27-5.02-2.37-7.96-3.26c0,0-1.88-1.33-4.96-3.57c-0.39-0.29-0.81-0.59-1.24-0.91
	c-0.47-0.35-0.97-0.72-1.49-1.09c-0.4-0.3-0.82-0.61-1.25-0.93c0,0,1.97-5.4,6.21-12.27L320.67,270.61z"/>
<path class="st9" d="M159.79,256.83c0,0.01,0,0.01,0,0.02c-0.14,0.68-0.27,1.34-0.39,2.01c-0.98,5.12-1.77,10-2.33,14.53
	c-0.14,1.09-0.26,2.16-0.37,3.2l-0.58,0.48c-1.01,0.4-2.01,0.79-3,1.16v-0.01l6.02-27.09C159.45,252.97,159.67,254.87,159.79,256.83
	z"/>
<path class="st6" d="M13.4,244.75c0,0-0.01,0-0.01,0.01"/>
<path class="st0" d="M30.61,224.58v1.51c-0.4-0.39-0.9-0.8-1.51-1.23C29.1,224.87,29.74,224.79,30.61,224.58z"/>
<path class="st1" d="M44.96,195.34l-3.43,11.13l-11.66-3.61l3.58-9.62c-11.99,2.1-13.49,9.46-12.81,14.92
	c0.16,1.39,0.47,2.65,0.79,3.68c0.05,0.02,0.1,0.04,0.15,0.06c21.24,8.68,12.88,11.82,9.04,12.69v1.52c2.24,2.19,1.33,3.7,0.13,4.59
	c-0.9,0.7-1.97,1.03-1.97,1.03l-0.05,0.01c5.53,3.54-2.78,5.11-2.78,5.11c12.16,5.33-1.63,7.65-1.63,7.65s-7,1.34-10.92,0.27
	c-0.01,0.01-0.03,0.02-0.04,0.02v0.01c-1.22,0.69-2.32,1.39-3.32,2.1c-0.02,0.02-0.04,0.04-0.06,0.05
	c-18.34,13.23,0.15,28.11,0.15,28.11l3.26-16.1l10.11,1.66l-3,16.84c8.32-3.56,11.95-8.25,13.13-12.85l0.47-4.51c0,0,0,0,0-0.01
	c-0.29-7.01-4.85-12.85-4.85-12.85l3.65-10.02l1.21-3.33c-0.73,0.09-1.44,0.07-2.06-0.12c-0.35-0.05-0.64-0.17-0.82-0.37
	c-0.9-0.94,0.35-3.65,6.67-9.93v-0.01l0.99-2.7C62.06,216.39,44.96,195.34,44.96,195.34z M24.19,256.71l-10.27-1.67l0.61-3.49
	l10.27,1.67L24.19,256.71z M38.58,211.82l-9.89-3.12l1.14-3.37l9.89,3.13L38.58,211.82z"/>
<path class="st0" d="M40.45,231.47c0,0,0,0-0.01,0.01l-0.51,0.2c0,0-1.35,0.61-3.01,1.18c-0.87,0.3-1.83,0.58-2.72,0.76
	c-0.82,0.16-1.58,0.23-2.15,0.14c-0.35-0.05-0.64-0.17-0.82-0.37c-0.9-0.94,0.35-3.65,6.67-9.93L40.45,231.47z"/>
<polygon class="st13" points="24.8,253.22 24.19,256.71 13.92,255.03 14.53,251.54 "/>
<polygon class="st13" points="39.72,208.46 38.58,211.82 28.68,208.69 29.82,205.33 "/>
<path class="st9" d="M173.76,46.99c0,0-4.18-0.15-9.75,0.51c-0.94,0.12-1.93,0.25-2.94,0.42c1.38-0.58,2.29-0.93,2.29-0.93
	s0.28-0.13,0.81-0.28C165.66,46.27,169.1,45.63,173.76,46.99z"/>
<path class="st3" d="M257.9,32.14v4.33h-56.75v-6.15c2.72-12.65,25.84-22.12,26.44-22.37c0.01,0,0.01,0,0.01,0
	C245.62,16.01,257.9,32.14,257.9,32.14z"/>
<path class="st8" d="M257.9,36.48v5.34h-63.32V30.33c0,0,10.29-23.39,27.06-24.64c2.04,0.64,4.02,1.4,5.94,2.26
	c-0.6,0.25-23.72,9.72-26.44,22.37v6.15H257.9z"/>
<path class="st3" d="M257.89,41.81v15.35H148.51c-1.46-2.93,8.03-7.35,12.55-9.25c1.01-0.16,2-0.3,2.94-0.42
	c5.57-0.66,9.75-0.51,9.75-0.51c-4.66-1.35-8.1-0.72-9.59-0.28c-0.53,0.15-0.81,0.28-0.81,0.28l0.17-15.69
	c20.3-28,41.17-30.97,58.12-25.61c-16.77,1.25-27.06,24.64-27.06,24.64v11.49H257.89z"/>
<path class="st11" d="M34.11,233.88c2.85-0.35,6.11-2.27,6.33-2.4"/>
<path class="st4" d="M218.37,136.66L218.37,136.66z"/>
<path class="st9" d="M238.24,119.65c-0.28,0.99-8.97,10.68-8.97,10.68s-0.01,0.01-0.01,0.03c-0.46,0.69-8.52,13.01-10.93,12.21
	c-0.34,0.04-0.67,0.09-1,0.14h-0.01l0.96-5.99c0.01,0,0.01,0,0.02-0.01c0.01-0.01,0.02-0.01,0.03-0.02
	c0.01-0.01,0.03-0.02,0.04-0.02c0.08-0.06,0.15-0.12,0.23-0.16c0.58-0.4,1.17-0.81,1.75-1.24c0.4-0.28,0.79-0.58,1.18-0.88
	c0.34-0.25,0.68-0.51,1.01-0.78c0.33-0.26,0.66-0.52,0.99-0.79c0.66-0.53,1.31-1.07,1.94-1.62c0.29-0.24,0.57-0.48,0.85-0.74
	c0.74-0.65,1.45-1.29,2.14-1.92c0.58-0.54,1.15-1.07,1.7-1.61c0.1-0.09,0.19-0.17,0.28-0.26c0.22-0.21,0.43-0.42,0.64-0.62
	c0.56-0.56,1.1-1.09,1.62-1.61c0.49-0.5,0.97-0.98,1.4-1.43c0.01-0.01,0.02-0.02,0.03-0.03c0.21-0.22,0.42-0.44,0.61-0.65
	c0.1-0.11,0.2-0.21,0.3-0.32c0.98-1.03,1.73-1.86,2.17-2.35c0.04-0.05,0.09-0.1,0.13-0.14c0.02-0.04,0.05-0.06,0.07-0.08
	c0.04-0.05,0.07-0.1,0.11-0.13c0.03-0.04,0.06-0.07,0.08-0.1c0.02-0.03,0.04-0.05,0.05-0.06c0.03-0.04,0.04-0.05,0.04-0.05
	S238.52,118.67,238.24,119.65z"/>
<path class="st4" d="M190.32,208.26c0,0-0.02,0.31-0.06,0.88c-0.54,7.2-4.37,56.2-9.81,58.71l-11.69,2.77
	c0,0,4.85-57.61,10.07-85.01c6.32-20.1,11.49-34.65,11.49-34.65c1-1.93,2.95-3.28,5.17-4.2
	C198.93,147.73,190.32,208.26,190.32,208.26z"/>
<g>
	<path class="st14" d="M287.21,323.46l-0.01,0.02c0.01,0,0.02,0,0.02,0S287.21,323.47,287.21,323.46z"/>
	<path class="st5" d="M307.67,387.62c-12.97,4.59-17.9,22.97-17.9,22.97l-31.18,4.44l-0.94,53.23l-2.54,3.23
		c-3.61-31.89-5.88-57.45-7.25-64.85c-1.63-8.88-6.36-12-10.99-11.35l0.12-0.59c0,0,3.49-17.69-0.35-21.15
		c-3.84-3.45-6.13-6.92-9.07-6.66c-2.94,0.24-12.13,8.64-11.88,11.85c0.26,3.21-1.8,14.08,0,29.39c1.79,15.31-7.4,60.01-7.4,60.01
		s-8.94,42.47-6.13,52.6c2.81,10.13,3.32,38.28,3.32,38.28s-0.58,37.29-3.87,40.01c-3.28,2.72-6.34,40.99-6.34,40.99h-17.88
		c-0.51-9.38-21.44-145.95-21.44-145.95c-11.7-44.71-9.44-96-3.9-133.34c0.82-5.48,1.7-10.66,2.62-15.48
		c1.3-6.81,2.68-12.88,4.04-18.05c0.26-1.02,0.53-1.99,0.79-2.94c0,0,0.84,0.6,2.59,1.6c4.61,2.63,15.54,8.01,34.08,12.27
		c8.81,2.04,19.33,3.82,31.71,4.94c17.65,1.61,39.07,1.86,64.67-0.44l0.26,0.44C292.8,343.08,301.68,364.52,307.67,387.62z"/>
	<path class="st2" d="M329.46,547.44c-0.33,53.04-1.43,97.27-1.43,97.27h-12.08c0,0-11.11-45.29-13.04-58.77
		c-0.25-1.7-0.83-15.84-1.09-34.91h17.87L329.46,547.44z"/>
	<path class="st2" d="M236.98,394.7l-0.12,0.59c-6.97,0.98-13.72,10.51-9.43,21.88c7.15,18.92-11.75,222.85-11.75,222.85h-20.42
		c0,0,3.06-38.27,6.34-40.99c3.29-2.72,3.87-40.01,3.87-40.01s-0.51-28.16-3.32-38.28c-2.81-10.13,6.13-52.6,6.13-52.6
		s9.19-44.7,7.4-60.01c-1.8-15.31,0.26-26.18,0-29.39c-0.25-3.21,8.94-11.61,11.88-11.85c2.94-0.25,5.23,3.21,9.07,6.66
		C240.47,377.01,236.98,394.7,236.98,394.7z"/>
	<rect x="207.97" y="640.02" class="st9" width="5.16" height="10.37"/>
	<rect x="180.7" y="640.02" class="st0" width="27.27" height="10.37"/>
	<path class="st3" d="M223.09,650.39v9.89l-4.6-0.49v38.27h-74.05c-0.13-0.51-0.24-1.01-0.34-1.5c-2.3-11.68,5.08-18.52,13.68-22.51
		c0,0,0.01,0,0.04-0.01c1.23-0.18,31.19-4.59,41.32,0.18c0,0-6.57-5.37-19.72-5.55l-0.26-9.63h-5.1v-8.65H223.09z"/>
	<path class="st8" d="M199.15,674.22c-10.13-4.78-40.09-0.37-41.32-0.18c9.99-4.61,21.6-5.37,21.6-5.37
		C192.58,668.85,199.15,674.22,199.15,674.22z"/>
	<path class="st3" d="M343.44,654.09v9.72l-5.02,0.08v32.85h-74.91c0.01-0.78,0.05-1.55,0.12-2.28c0.82-9.5,6-15.09,12.06-18.38
		c0,0,30.86-4.93,38.54-0.01c-0.19-0.28-3.58-4.8-17.02-4.62v-7.47h-7.66v-9.89h9.62v1.49l24.38,0.36l3.37,0.05v-1.9H343.44z"/>
	<line class="st6" x1="299.4" y1="654.09" x2="299.18" y2="654.09"/>
	<polygon class="st0" points="323.56,644.71 323.56,655.94 299.18,655.58 299.18,644.71 	"/>
	<polygon class="st9" points="326.93,644.71 326.93,655.99 323.56,655.94 323.56,644.71 	"/>
	<path class="st5" d="M315.95,644.71h-19.58c-13.18-12.55-23.02-51.06-30.32-93.68h35.77c0.26,19.06,0.84,33.21,1.09,34.91
		C304.84,599.42,315.95,644.71,315.95,644.71z"/>
	<path class="st8" d="M314.24,676.07c-7.68-4.92-38.54,0.01-38.54,0.01c9.65-5.24,21.52-4.63,21.52-4.63
		C310.66,671.27,314.05,675.79,314.24,676.07z"/>
	<path class="st6" d="M314.25,676.08C314.25,676.08,314.24,676.08,314.25,676.08"/>
	<path class="st9" d="M353.55,710.61c0.08,0.16,0.11,0.33,0.11,0.5c0,4.9-28.61,8.89-63.9,8.89c-35.28,0-63.89-3.99-63.89-8.89
		c0-0.44,0.23-0.88,0.68-1.3c-9.67,0.82-21.03,1.3-33.18,1.3c-35.28,0-63.9-3.99-63.9-8.9c0-2.15,5.49-4.12,14.62-5.66
		c0.1,0.49,0.21,0.99,0.34,1.5h74.05v-4.01c10.16,0.6,18.97,1.57,25.61,2.77h0.01c5.28-0.96,11.92-1.76,19.52-2.35
		c-0.07,0.74-0.11,1.5-0.12,2.28h74.91v-3.37c32.39,0.43,57.71,4.23,57.71,8.84C396.14,706.08,378.37,709.38,353.55,710.61z"/>
</g>
</svg>
